%TF.GenerationSoftware,KiCad,Pcbnew,10.0.3*%
%TF.CreationDate,2026-07-01T22:04:42+03:00*%
%TF.ProjectId,HomeTap,486f6d65-5461-4702-9e6b-696361645f70,rev?*%
%TF.SameCoordinates,Original*%
%TF.FileFunction,Soldermask,Top*%
%TF.FilePolarity,Negative*%
%FSLAX46Y46*%
G04 Gerber Fmt 4.6, Leading zero omitted, Abs format (unit mm)*
G04 Created by KiCad (PCBNEW 10.0.3) date 2026-07-01 22:04:42*
%MOMM*%
%LPD*%
G01*
G04 APERTURE LIST*
G04 Aperture macros list*
%AMRoundRect*
0 Rectangle with rounded corners*
0 $1 Rounding radius*
0 $2 $3 $4 $5 $6 $7 $8 $9 X,Y pos of 4 corners*
0 Add a 4 corners polygon primitive as box body*
4,1,4,$2,$3,$4,$5,$6,$7,$8,$9,$2,$3,0*
0 Add four circle primitives for the rounded corners*
1,1,$1+$1,$2,$3*
1,1,$1+$1,$4,$5*
1,1,$1+$1,$6,$7*
1,1,$1+$1,$8,$9*
0 Add four rect primitives between the rounded corners*
20,1,$1+$1,$2,$3,$4,$5,0*
20,1,$1+$1,$4,$5,$6,$7,0*
20,1,$1+$1,$6,$7,$8,$9,0*
20,1,$1+$1,$8,$9,$2,$3,0*%
G04 Aperture macros list end*
%ADD10C,2.200000*%
%ADD11RoundRect,0.093000X0.021213X-0.415779X0.415779X-0.021213X-0.021213X0.415779X-0.415779X0.021213X0*%
%ADD12RoundRect,0.093000X-0.396121X-0.128102X0.087121X-0.407102X0.396121X0.128102X-0.087121X0.407102X0*%
%ADD13RoundRect,0.093000X-0.279000X-0.309000X0.279000X-0.309000X0.279000X0.309000X-0.279000X0.309000X0*%
%ADD14RoundRect,0.093000X0.309000X-0.279000X0.309000X0.279000X-0.309000X0.279000X-0.309000X-0.279000X0*%
%ADD15RoundRect,0.093000X-0.309000X0.279000X-0.309000X-0.279000X0.309000X-0.279000X0.309000X0.279000X0*%
%ADD16RoundRect,0.093000X-0.226261X0.349468X-0.370682X-0.189518X0.226261X-0.349468X0.370682X0.189518X0*%
%ADD17RoundRect,0.250000X-0.825000X-0.825000X0.825000X-0.825000X0.825000X0.825000X-0.825000X0.825000X0*%
%ADD18C,2.150000*%
%ADD19RoundRect,0.093000X-0.021213X0.415779X-0.415779X0.021213X0.021213X-0.415779X0.415779X-0.021213X0*%
%ADD20RoundRect,0.093000X-0.370682X0.189518X-0.226261X-0.349468X0.370682X-0.189518X0.226261X0.349468X0*%
%ADD21RoundRect,0.093000X0.396121X0.128102X-0.087121X0.407102X-0.396121X-0.128102X0.087121X-0.407102X0*%
%ADD22RoundRect,0.093000X-0.349468X-0.226261X0.189518X-0.370682X0.349468X0.226261X-0.189518X0.370682X0*%
%ADD23RoundRect,0.093000X0.415779X0.021213X0.021213X0.415779X-0.415779X-0.021213X-0.021213X-0.415779X0*%
%ADD24RoundRect,0.102000X-0.485000X-0.865000X0.485000X-0.865000X0.485000X0.865000X-0.485000X0.865000X0*%
%ADD25RoundRect,0.102000X0.300000X-0.280000X0.300000X0.280000X-0.300000X0.280000X-0.300000X-0.280000X0*%
%ADD26RoundRect,0.093000X-0.407102X0.087121X-0.128102X-0.396121X0.407102X-0.087121X0.128102X0.396121X0*%
%ADD27RoundRect,0.093000X-0.415779X-0.021213X-0.021213X-0.415779X0.415779X0.021213X0.021213X0.415779X0*%
%ADD28RoundRect,0.102000X-0.500000X-0.710000X0.500000X-0.710000X0.500000X0.710000X-0.500000X0.710000X0*%
%ADD29RoundRect,0.650000X0.650000X-0.650000X0.650000X0.650000X-0.650000X0.650000X-0.650000X-0.650000X0*%
%ADD30C,2.600000*%
%ADD31RoundRect,0.093000X0.279000X0.309000X-0.279000X0.309000X-0.279000X-0.309000X0.279000X-0.309000X0*%
%ADD32RoundRect,0.093000X0.087121X0.407102X-0.396121X0.128102X-0.087121X-0.407102X0.396121X-0.128102X0*%
%ADD33O,1.104000X0.454000*%
%ADD34O,0.454000X1.104000*%
%ADD35R,1.499998X1.999994*%
%ADD36R,1.535752X1.970136*%
%ADD37RoundRect,0.093000X0.370682X-0.189518X0.226261X0.349468X-0.370682X0.189518X-0.226261X-0.349468X0*%
%ADD38RoundRect,0.152400X1.063600X0.609600X-1.063600X0.609600X-1.063600X-0.609600X1.063600X-0.609600X0*%
%ADD39C,1.524000*%
%ADD40RoundRect,0.152400X-1.063600X-0.609600X1.063600X-0.609600X1.063600X0.609600X-1.063600X0.609600X0*%
%ADD41RoundRect,0.093000X0.407102X-0.087121X0.128102X0.396121X-0.407102X0.087121X-0.128102X-0.396121X0*%
%ADD42RoundRect,0.093000X-0.189518X-0.370682X0.349468X-0.226261X0.189518X0.370682X-0.349468X0.226261X0*%
%ADD43RoundRect,0.093000X0.349468X0.226261X-0.189518X0.370682X-0.349468X-0.226261X0.189518X-0.370682X0*%
%ADD44RoundRect,0.093000X0.128102X-0.396121X0.407102X0.087121X-0.128102X0.396121X-0.407102X-0.087121X0*%
%ADD45RoundRect,0.093000X-0.128102X0.396121X-0.407102X-0.087121X0.128102X-0.396121X0.407102X0.087121X0*%
%ADD46RoundRect,0.160500X-0.481500X-0.651500X0.481500X-0.651500X0.481500X0.651500X-0.481500X0.651500X0*%
%ADD47RoundRect,0.060500X-0.776500X-0.181500X0.776500X-0.181500X0.776500X0.181500X-0.776500X0.181500X0*%
%ADD48RoundRect,0.093000X0.189518X0.370682X-0.349468X0.226261X-0.189518X-0.370682X0.349468X-0.226261X0*%
%ADD49RoundRect,0.134250X-0.402750X-0.432750X0.402750X-0.432750X0.402750X0.432750X-0.402750X0.432750X0*%
%ADD50RoundRect,0.093000X0.226261X-0.349468X0.370682X0.189518X-0.226261X0.349468X-0.370682X-0.189518X0*%
G04 APERTURE END LIST*
D10*
%TO.C,REF\u002A\u002A*%
X193802000Y-58928000D03*
%TD*%
D11*
%TO.C,C27*%
X156498932Y-66701424D03*
X157109872Y-66090484D03*
%TD*%
D12*
%TO.C,C8*%
X173933327Y-63875634D03*
X174681573Y-64307634D03*
%TD*%
D13*
%TO.C,C4*%
X150753331Y-68349415D03*
X151617331Y-68349415D03*
%TD*%
D14*
%TO.C,C24*%
X152557450Y-77081002D03*
X152557450Y-76217002D03*
%TD*%
D15*
%TO.C,C12*%
X185272331Y-76756415D03*
X185272331Y-77620415D03*
%TD*%
D16*
%TO.C,C13*%
X181828141Y-80378135D03*
X181604521Y-81212695D03*
%TD*%
D17*
%TO.C,J2*%
X154270331Y-59332415D03*
D18*
X158870331Y-59332415D03*
%TD*%
D19*
%TO.C,C15*%
X177615968Y-86596580D03*
X177005028Y-87207520D03*
%TD*%
D20*
%TO.C,C11*%
X181081331Y-71397415D03*
X181304951Y-72231975D03*
%TD*%
D21*
%TO.C,C20*%
X160181573Y-89422370D03*
X159433327Y-88990370D03*
%TD*%
D22*
%TO.C,C7*%
X170393046Y-62531268D03*
X171227606Y-62754888D03*
%TD*%
D10*
%TO.C,REF\u002A\u002A*%
X123444000Y-92075000D03*
%TD*%
D23*
%TO.C,C21*%
X157109872Y-87207520D03*
X156498932Y-86596580D03*
%TD*%
D24*
%TO.C,R1*%
X145565331Y-83081415D03*
X148525331Y-83081415D03*
%TD*%
D13*
%TO.C,C1*%
X140136331Y-85500000D03*
X141000331Y-85500000D03*
%TD*%
D25*
%TO.C,R2*%
X185399331Y-80649415D03*
X185399331Y-79779415D03*
%TD*%
D10*
%TO.C,REF\u002A\u002A*%
X193802000Y-92075000D03*
%TD*%
D26*
%TO.C,C10*%
X179398818Y-69024879D03*
X179830818Y-69773125D03*
%TD*%
D27*
%TO.C,C9*%
X177005028Y-66090484D03*
X177615968Y-66701424D03*
%TD*%
D28*
%TO.C,R3*%
X163890331Y-59713415D03*
X165760331Y-59713415D03*
%TD*%
D29*
%TO.C,REF\u002A\u002A*%
X123825000Y-85979000D03*
D30*
X123825000Y-80899000D03*
%TD*%
D31*
%TO.C,C18*%
X167489450Y-91149002D03*
X166625450Y-91149002D03*
%TD*%
D32*
%TO.C,C16*%
X174681573Y-88990370D03*
X173933327Y-89422370D03*
%TD*%
D33*
%TO.C,U2*%
X140515331Y-81646415D03*
X140515331Y-82046415D03*
X140515331Y-82446415D03*
X140515331Y-82846415D03*
X140515331Y-83246415D03*
D34*
X141165331Y-83896415D03*
X141565331Y-83896415D03*
X141965331Y-83896415D03*
X142365331Y-83896415D03*
X142765331Y-83896415D03*
D33*
X143415331Y-83246415D03*
X143415331Y-82846415D03*
X143415331Y-82446415D03*
X143415331Y-82046415D03*
X143415331Y-81646415D03*
D34*
X142765331Y-80996415D03*
X142365331Y-80996415D03*
X141965331Y-80996415D03*
X141565331Y-80996415D03*
X141165331Y-80996415D03*
%TD*%
D35*
%TO.C,J1*%
X182927751Y-78001412D03*
D36*
X182909876Y-75476347D03*
%TD*%
D10*
%TO.C,REF\u002A\u002A*%
X123444000Y-58674000D03*
%TD*%
D37*
%TO.C,C23*%
X153163336Y-80819158D03*
X152939716Y-79984598D03*
%TD*%
D38*
%TO.C,U1*%
X127795331Y-58951415D03*
D39*
X128630331Y-58951415D03*
D38*
X127795331Y-61491415D03*
D39*
X128630331Y-61491415D03*
D38*
X127795331Y-64031415D03*
D39*
X128630331Y-64031415D03*
D38*
X127795331Y-66571415D03*
D39*
X128630331Y-66571415D03*
D38*
X127795331Y-69111415D03*
D39*
X128630331Y-69111415D03*
D38*
X127795331Y-71651415D03*
D39*
X128630331Y-71651415D03*
D38*
X127795331Y-74191415D03*
D39*
X128630331Y-74191415D03*
X143870331Y-74191415D03*
D40*
X144705331Y-74191415D03*
D39*
X143870331Y-71651415D03*
D40*
X144705331Y-71651415D03*
D39*
X143870331Y-69111415D03*
D40*
X144705331Y-69111415D03*
D39*
X143870331Y-66571415D03*
D40*
X144705331Y-66571415D03*
D39*
X143870331Y-64031415D03*
D40*
X144705331Y-64031415D03*
D39*
X143870331Y-61491415D03*
D40*
X144705331Y-61491415D03*
D39*
X143870331Y-58951415D03*
D40*
X144705331Y-58951415D03*
%TD*%
D41*
%TO.C,C22*%
X154716082Y-84273125D03*
X154284082Y-83524879D03*
%TD*%
D42*
%TO.C,C28*%
X159332720Y-64111810D03*
X160167280Y-63888190D03*
%TD*%
D43*
%TO.C,C19*%
X163721854Y-90766736D03*
X162887294Y-90543116D03*
%TD*%
D44*
%TO.C,C26*%
X154284082Y-69773125D03*
X154716082Y-69024879D03*
%TD*%
D13*
%TO.C,C6*%
X166625450Y-62149002D03*
X167489450Y-62149002D03*
%TD*%
D45*
%TO.C,C14*%
X179830818Y-83524879D03*
X179398818Y-84273125D03*
%TD*%
D46*
%TO.C,C5*%
X148436331Y-71016415D03*
X150226331Y-71016415D03*
%TD*%
D47*
%TO.C,U3*%
X147571331Y-63666415D03*
X147571331Y-64166415D03*
X147571331Y-64666415D03*
X147571331Y-65166415D03*
X147571331Y-65666415D03*
X151871331Y-65666415D03*
X151871331Y-65166415D03*
X151871331Y-64666415D03*
X151871331Y-64166415D03*
X151871331Y-63666415D03*
%TD*%
D42*
%TO.C,C29*%
X162887294Y-62754888D03*
X163721854Y-62531268D03*
%TD*%
D48*
%TO.C,C17*%
X171227606Y-90543116D03*
X170393046Y-90766736D03*
%TD*%
D14*
%TO.C,C2*%
X138790331Y-83513415D03*
X138790331Y-82649415D03*
%TD*%
D49*
%TO.C,C3*%
X147154331Y-68222415D03*
X148714331Y-68222415D03*
%TD*%
D50*
%TO.C,C25*%
X152939716Y-73313406D03*
X153163336Y-72478846D03*
%TD*%
M02*
