%TF.GenerationSoftware,KiCad,Pcbnew,10.0.3*%
%TF.CreationDate,2026-07-01T22:04:42+03:00*%
%TF.ProjectId,HomeTap,486f6d65-5461-4702-9e6b-696361645f70,rev?*%
%TF.SameCoordinates,Original*%
%TF.FileFunction,Paste,Bot*%
%TF.FilePolarity,Positive*%
%FSLAX46Y46*%
G04 Gerber Fmt 4.6, Leading zero omitted, Abs format (unit mm)*
G04 Created by KiCad (PCBNEW 10.0.3) date 2026-07-01 22:04:42*
%MOMM*%
%LPD*%
G01*
G04 APERTURE LIST*
G04 Aperture macros list*
%AMRotRect*
0 Rectangle, with rotation*
0 The origin of the aperture is its center*
0 $1 length*
0 $2 width*
0 $3 Rotation angle, in degrees counterclockwise*
0 Add horizontal line*
21,1,$1,$2,0,0,$3*%
G04 Aperture macros list end*
%ADD10RotRect,0.700000X0.700000X285.000000*%
%ADD11RotRect,0.700000X0.700000X210.000000*%
%ADD12RotRect,0.700000X0.700000X150.000000*%
%ADD13RotRect,0.700000X0.700000X225.000000*%
%ADD14RotRect,0.700000X0.700000X315.000000*%
%ADD15RotRect,0.700000X0.700000X345.000000*%
%ADD16R,0.700000X0.700000*%
%ADD17RotRect,0.700000X0.700000X255.000000*%
%ADD18RotRect,0.700000X0.700000X135.000000*%
%ADD19RotRect,0.700000X0.700000X240.000000*%
%ADD20RotRect,0.700000X0.700000X15.000000*%
%ADD21RotRect,0.700000X0.700000X195.000000*%
%ADD22RotRect,0.700000X0.700000X45.000000*%
%ADD23RotRect,0.700000X0.700000X330.000000*%
%ADD24RotRect,0.700000X0.700000X75.000000*%
%ADD25RotRect,0.700000X0.700000X120.000000*%
%ADD26RotRect,0.700000X0.700000X300.000000*%
%ADD27RotRect,0.700000X0.700000X165.000000*%
%ADD28RotRect,0.700000X0.700000X105.000000*%
%ADD29RotRect,0.700000X0.700000X60.000000*%
%ADD30RotRect,0.700000X0.700000X30.000000*%
G04 APERTURE END LIST*
D10*
%TO.C,D18*%
X154698261Y-79013359D03*
X155760780Y-78728658D03*
X156234419Y-80496303D03*
X155171900Y-80781004D03*
%TD*%
D11*
%TO.C,D23*%
X161574863Y-65322883D03*
X162124863Y-66275511D03*
X160540037Y-67190511D03*
X159990037Y-66237883D03*
%TD*%
D12*
%TO.C,D3*%
X174124863Y-66237883D03*
X173574863Y-67190511D03*
X171990037Y-66275511D03*
X172540037Y-65322883D03*
%TD*%
D13*
%TO.C,D22*%
X158830263Y-67127810D03*
X159608080Y-67905627D03*
X158314075Y-69199632D03*
X157536258Y-68421815D03*
%TD*%
D14*
%TO.C,D16*%
X157536258Y-84876189D03*
X158314075Y-84098372D03*
X159608080Y-85392377D03*
X158830263Y-86170194D03*
%TD*%
D15*
%TO.C,D14*%
X162925448Y-88534552D03*
X163210149Y-87472033D03*
X164977794Y-87945672D03*
X164693093Y-89008191D03*
%TD*%
D16*
%TO.C,D19*%
X154507450Y-75734002D03*
X155607450Y-75734002D03*
X155607450Y-77564002D03*
X154507450Y-77564002D03*
%TD*%
%TO.C,D7*%
X179607450Y-77564002D03*
X178507450Y-77564002D03*
X178507450Y-75734002D03*
X179607450Y-75734002D03*
%TD*%
D17*
%TO.C,D20*%
X155171900Y-72517000D03*
X156234419Y-72801701D03*
X155760780Y-74569346D03*
X154698261Y-74284645D03*
%TD*%
D18*
%TO.C,D4*%
X176578642Y-68421815D03*
X175800825Y-69199632D03*
X174506820Y-67905627D03*
X175284637Y-67127810D03*
%TD*%
D19*
%TO.C,D21*%
X156646331Y-69581589D03*
X157598959Y-70131589D03*
X156683959Y-71716415D03*
X155731331Y-71166415D03*
%TD*%
D16*
%TO.C,D1*%
X167972450Y-64099002D03*
X167972450Y-65199002D03*
X166142450Y-65199002D03*
X166142450Y-64099002D03*
%TD*%
D20*
%TO.C,D12*%
X169421807Y-89008191D03*
X169137106Y-87945672D03*
X170904751Y-87472033D03*
X171189452Y-88534552D03*
%TD*%
D21*
%TO.C,D24*%
X164693093Y-64289813D03*
X164977794Y-65352332D03*
X163210149Y-65825971D03*
X162925448Y-64763452D03*
%TD*%
D22*
%TO.C,D10*%
X175284637Y-86170194D03*
X174506820Y-85392377D03*
X175800825Y-84098372D03*
X176578642Y-84876189D03*
%TD*%
D23*
%TO.C,D15*%
X159990037Y-87060121D03*
X160540037Y-86107493D03*
X162124863Y-87022493D03*
X161574863Y-87975121D03*
%TD*%
D24*
%TO.C,D8*%
X178943000Y-80781004D03*
X177880481Y-80496303D03*
X178354120Y-78728658D03*
X179416639Y-79013359D03*
%TD*%
D25*
%TO.C,D5*%
X178383569Y-71166415D03*
X177430941Y-71716415D03*
X176515941Y-70131589D03*
X177468569Y-69581589D03*
%TD*%
D26*
%TO.C,D17*%
X155731331Y-82131589D03*
X156683959Y-81581589D03*
X157598959Y-83166415D03*
X156646331Y-83716415D03*
%TD*%
D27*
%TO.C,D2*%
X171189452Y-64763452D03*
X170904751Y-65825971D03*
X169137106Y-65352332D03*
X169421807Y-64289813D03*
%TD*%
D28*
%TO.C,D6*%
X179416639Y-74284645D03*
X178354120Y-74569346D03*
X177880481Y-72801701D03*
X178943000Y-72517000D03*
%TD*%
D16*
%TO.C,D13*%
X166142450Y-89199002D03*
X166142450Y-88099002D03*
X167972450Y-88099002D03*
X167972450Y-89199002D03*
%TD*%
D29*
%TO.C,D9*%
X177468569Y-83716415D03*
X176515941Y-83166415D03*
X177430941Y-81581589D03*
X178383569Y-82131589D03*
%TD*%
D30*
%TO.C,D11*%
X172540037Y-87975121D03*
X171990037Y-87022493D03*
X173574863Y-86107493D03*
X174124863Y-87060121D03*
%TD*%
M02*
