M48
; DRILL file KiCad 10.0.3 date 2026-07-01T22:05:26
; FORMAT={-:-/ absolute / metric / decimal}
; #@! TF.CreationDate,2026-07-01T22:05:26+03:00
; #@! TF.GenerationSoftware,Kicad,Pcbnew,10.0.3
; #@! TF.FileFunction,Plated,1,2,PTH
FMAT,2
METRIC
; #@! TA.AperFunction,Plated,PTH,ViaDrill
T1C0.300
; #@! TA.AperFunction,Plated,PTH,ComponentDrill
T2C0.889
; #@! TA.AperFunction,Plated,PTH,ComponentDrill
T3C1.150
; #@! TA.AperFunction,Plated,PTH,ComponentDrill
T4C1.300
%
G90
G05
T1
X129.815Y-63.66
X130.24Y-57.88
X130.35Y-75.91
X131.01Y-67.92
X134.83Y-61.82
X135.73Y-81.47
X137.46Y-68.54
X137.6Y-82.0
X139.22Y-72.08
X139.57Y-59.96
X140.535Y-80.6
X141.8Y-82.8
X145.56Y-80.47
X146.76Y-69.87
X147.24Y-66.8
X147.83Y-58.58
X147.87Y-74.43
X149.53Y-61.92
X149.84Y-69.42
X152.14Y-78.85
X153.42Y-78.65
X153.44Y-74.58
X153.48Y-63.53
X153.56Y-64.91
X153.67Y-77.19
X153.96Y-80.45
X154.0Y-72.71
X154.78Y-87.5
X155.08Y-83.24
X155.3Y-69.93
X155.71Y-69.09
X156.28Y-85.29
X157.54Y-86.33
X157.73Y-66.76
X158.33Y-65.76
X158.8Y-87.77
X158.91Y-68.56
X160.41Y-64.84
X160.41Y-88.56
X161.32Y-66.7
X162.44Y-77.99
X163.67Y-63.4
X163.81Y-88.83
X163.81Y-89.88
X164.08Y-65.63
X165.5Y-61.25
X167.0Y-65.21
X167.03Y-89.27
X167.16Y-63.13
X167.16Y-90.26
X169.97Y-65.63
X170.23Y-88.74
X170.6Y-63.59
X170.83Y-89.78
X172.6Y-61.58
X172.71Y-66.67
X173.24Y-87.5
X173.94Y-88.37
X173.95Y-64.97
X175.15Y-68.49
X175.93Y-85.51
X176.06Y-91.28
X176.59Y-67.21
X176.9Y-86.12
X177.91Y-82.93
X178.76Y-69.81
X179.18Y-83.04
X179.2Y-79.93
X179.21Y-73.38
X179.26Y-88.1
X179.54Y-76.64
X180.25Y-72.28
X180.4Y-80.05
X180.75Y-75.93
X181.3Y-91.76
X181.33Y-86.2
X181.43Y-69.29
X183.76Y-83.35
X183.89Y-69.8
X184.25Y-77.34
X185.93Y-75.15
X186.87Y-77.54
X187.24Y-66.44
X189.43Y-77.38
X192.26Y-79.54
T2
X128.63Y-58.951
X128.63Y-61.491
X128.63Y-64.031
X128.63Y-66.571
X128.63Y-69.111
X128.63Y-71.651
X128.63Y-74.191
X143.87Y-58.951
X143.87Y-61.491
X143.87Y-64.031
X143.87Y-66.571
X143.87Y-69.111
X143.87Y-71.651
X143.87Y-74.191
T3
X154.27Y-59.332
X158.87Y-59.332
T4
X123.825Y-80.899
X123.825Y-85.979
M30
