%TF.GenerationSoftware,KiCad,Pcbnew,10.0.3*%
%TF.CreationDate,2026-07-01T22:04:42+03:00*%
%TF.ProjectId,HomeTap,486f6d65-5461-4702-9e6b-696361645f70,rev?*%
%TF.SameCoordinates,Original*%
%TF.FileFunction,Paste,Top*%
%TF.FilePolarity,Positive*%
%FSLAX46Y46*%
G04 Gerber Fmt 4.6, Leading zero omitted, Abs format (unit mm)*
G04 Created by KiCad (PCBNEW 10.0.3) date 2026-07-01 22:04:42*
%MOMM*%
%LPD*%
G01*
G04 APERTURE LIST*
G04 Aperture macros list*
%AMRoundRect*
0 Rectangle with rounded corners*
0 $1 Rounding radius*
0 $2 $3 $4 $5 $6 $7 $8 $9 X,Y pos of 4 corners*
0 Add a 4 corners polygon primitive as box body*
4,1,4,$2,$3,$4,$5,$6,$7,$8,$9,$2,$3,0*
0 Add four circle primitives for the rounded corners*
1,1,$1+$1,$2,$3*
1,1,$1+$1,$4,$5*
1,1,$1+$1,$6,$7*
1,1,$1+$1,$8,$9*
0 Add four rect primitives between the rounded corners*
20,1,$1+$1,$2,$3,$4,$5,0*
20,1,$1+$1,$4,$5,$6,$7,0*
20,1,$1+$1,$6,$7,$8,$9,0*
20,1,$1+$1,$8,$9,$2,$3,0*%
G04 Aperture macros list end*
%ADD10RoundRect,0.067500X0.021213X-0.307591X0.307591X-0.021213X-0.021213X0.307591X-0.307591X0.021213X0*%
%ADD11RoundRect,0.067500X-0.291620X-0.100101X0.059120X-0.302601X0.291620X0.100101X-0.059120X0.302601X0*%
%ADD12RoundRect,0.067500X-0.202500X-0.232500X0.202500X-0.232500X0.202500X0.232500X-0.202500X0.232500X0*%
%ADD13RoundRect,0.067500X0.232500X-0.202500X0.232500X0.202500X-0.232500X0.202500X-0.232500X-0.202500X0*%
%ADD14RoundRect,0.067500X-0.232500X0.202500X-0.232500X-0.202500X0.232500X-0.202500X0.232500X0.202500X0*%
%ADD15RoundRect,0.067500X-0.172167X0.255775X-0.276989X-0.135425X0.172167X-0.255775X0.276989X0.135425X0*%
%ADD16RoundRect,0.067500X-0.021213X0.307591X-0.307591X0.021213X0.021213X-0.307591X0.307591X-0.021213X0*%
%ADD17RoundRect,0.067500X-0.276989X0.135425X-0.172167X-0.255775X0.276989X-0.135425X0.172167X0.255775X0*%
%ADD18RoundRect,0.067500X0.291620X0.100101X-0.059120X0.302601X-0.291620X-0.100101X0.059120X-0.302601X0*%
%ADD19RoundRect,0.067500X-0.255775X-0.172167X0.135425X-0.276989X0.255775X0.172167X-0.135425X0.276989X0*%
%ADD20RoundRect,0.067500X0.307591X0.021213X0.021213X0.307591X-0.307591X-0.021213X-0.021213X-0.307591X0*%
%ADD21R,0.970000X1.730000*%
%ADD22R,0.600000X0.560000*%
%ADD23RoundRect,0.067500X-0.302601X0.059120X-0.100101X-0.291620X0.302601X-0.059120X0.100101X0.291620X0*%
%ADD24RoundRect,0.067500X-0.307591X-0.021213X-0.021213X-0.307591X0.307591X0.021213X0.021213X0.307591X0*%
%ADD25R,1.000000X1.420000*%
%ADD26RoundRect,0.067500X0.202500X0.232500X-0.202500X0.232500X-0.202500X-0.232500X0.202500X-0.232500X0*%
%ADD27RoundRect,0.067500X0.059120X0.302601X-0.291620X0.100101X-0.059120X-0.302601X0.291620X-0.100101X0*%
%ADD28O,0.900000X0.250000*%
%ADD29O,0.250000X0.900000*%
%ADD30R,1.499998X1.999994*%
%ADD31R,1.535752X1.970136*%
%ADD32RoundRect,0.067500X0.276989X-0.135425X0.172167X0.255775X-0.276989X0.135425X-0.172167X-0.255775X0*%
%ADD33RoundRect,0.067500X0.302601X-0.059120X0.100101X0.291620X-0.302601X0.059120X-0.100101X-0.291620X0*%
%ADD34RoundRect,0.067500X-0.135425X-0.276989X0.255775X-0.172167X0.135425X0.276989X-0.255775X0.172167X0*%
%ADD35RoundRect,0.067500X0.255775X0.172167X-0.135425X0.276989X-0.255775X-0.172167X0.135425X-0.276989X0*%
%ADD36RoundRect,0.067500X0.100101X-0.291620X0.302601X0.059120X-0.100101X0.291620X-0.302601X-0.059120X0*%
%ADD37RoundRect,0.067500X-0.100101X0.291620X-0.302601X-0.059120X0.100101X-0.291620X0.302601X0.059120X0*%
%ADD38RoundRect,0.135000X-0.405000X-0.575000X0.405000X-0.575000X0.405000X0.575000X-0.405000X0.575000X0*%
%ADD39RoundRect,0.035000X-0.700000X-0.105000X0.700000X-0.105000X0.700000X0.105000X-0.700000X0.105000X0*%
%ADD40RoundRect,0.067500X0.135425X0.276989X-0.255775X0.172167X-0.135425X-0.276989X0.255775X-0.172167X0*%
%ADD41RoundRect,0.108750X-0.326250X-0.356250X0.326250X-0.356250X0.326250X0.356250X-0.326250X0.356250X0*%
%ADD42RoundRect,0.067500X0.172167X-0.255775X0.276989X0.135425X-0.172167X0.255775X-0.276989X-0.135425X0*%
G04 APERTURE END LIST*
D10*
%TO.C,C27*%
X156498932Y-66701424D03*
X157109872Y-66090484D03*
%TD*%
D11*
%TO.C,C8*%
X173933327Y-63875634D03*
X174681573Y-64307634D03*
%TD*%
D12*
%TO.C,C4*%
X150753331Y-68349415D03*
X151617331Y-68349415D03*
%TD*%
D13*
%TO.C,C24*%
X152557450Y-77081002D03*
X152557450Y-76217002D03*
%TD*%
D14*
%TO.C,C12*%
X185272331Y-76756415D03*
X185272331Y-77620415D03*
%TD*%
D15*
%TO.C,C13*%
X181828141Y-80378135D03*
X181604521Y-81212695D03*
%TD*%
D16*
%TO.C,C15*%
X177615968Y-86596580D03*
X177005028Y-87207520D03*
%TD*%
D17*
%TO.C,C11*%
X181081331Y-71397415D03*
X181304951Y-72231975D03*
%TD*%
D18*
%TO.C,C20*%
X160181573Y-89422370D03*
X159433327Y-88990370D03*
%TD*%
D19*
%TO.C,C7*%
X170393046Y-62531268D03*
X171227606Y-62754888D03*
%TD*%
D20*
%TO.C,C21*%
X157109872Y-87207520D03*
X156498932Y-86596580D03*
%TD*%
D21*
%TO.C,R1*%
X145565331Y-83081415D03*
X148525331Y-83081415D03*
%TD*%
D12*
%TO.C,C1*%
X140136331Y-85500000D03*
X141000331Y-85500000D03*
%TD*%
D22*
%TO.C,R2*%
X185399331Y-80649415D03*
X185399331Y-79779415D03*
%TD*%
D23*
%TO.C,C10*%
X179398818Y-69024879D03*
X179830818Y-69773125D03*
%TD*%
D24*
%TO.C,C9*%
X177005028Y-66090484D03*
X177615968Y-66701424D03*
%TD*%
D25*
%TO.C,R3*%
X163890331Y-59713415D03*
X165760331Y-59713415D03*
%TD*%
D26*
%TO.C,C18*%
X167489450Y-91149002D03*
X166625450Y-91149002D03*
%TD*%
D27*
%TO.C,C16*%
X174681573Y-88990370D03*
X173933327Y-89422370D03*
%TD*%
D28*
%TO.C,U2*%
X140515331Y-81646415D03*
X140515331Y-82046415D03*
X140515331Y-82446415D03*
X140515331Y-82846415D03*
X140515331Y-83246415D03*
D29*
X141165331Y-83896415D03*
X141565331Y-83896415D03*
X141965331Y-83896415D03*
X142365331Y-83896415D03*
X142765331Y-83896415D03*
D28*
X143415331Y-83246415D03*
X143415331Y-82846415D03*
X143415331Y-82446415D03*
X143415331Y-82046415D03*
X143415331Y-81646415D03*
D29*
X142765331Y-80996415D03*
X142365331Y-80996415D03*
X141965331Y-80996415D03*
X141565331Y-80996415D03*
X141165331Y-80996415D03*
%TD*%
D30*
%TO.C,J1*%
X182927751Y-78001412D03*
D31*
X182909876Y-75476347D03*
%TD*%
D32*
%TO.C,C23*%
X153163336Y-80819158D03*
X152939716Y-79984598D03*
%TD*%
D33*
%TO.C,C22*%
X154716082Y-84273125D03*
X154284082Y-83524879D03*
%TD*%
D34*
%TO.C,C28*%
X159332720Y-64111810D03*
X160167280Y-63888190D03*
%TD*%
D35*
%TO.C,C19*%
X163721854Y-90766736D03*
X162887294Y-90543116D03*
%TD*%
D36*
%TO.C,C26*%
X154284082Y-69773125D03*
X154716082Y-69024879D03*
%TD*%
D12*
%TO.C,C6*%
X166625450Y-62149002D03*
X167489450Y-62149002D03*
%TD*%
D37*
%TO.C,C14*%
X179830818Y-83524879D03*
X179398818Y-84273125D03*
%TD*%
D38*
%TO.C,C5*%
X148436331Y-71016415D03*
X150226331Y-71016415D03*
%TD*%
D39*
%TO.C,U3*%
X147571331Y-63666415D03*
X147571331Y-64166415D03*
X147571331Y-64666415D03*
X147571331Y-65166415D03*
X147571331Y-65666415D03*
X151871331Y-65666415D03*
X151871331Y-65166415D03*
X151871331Y-64666415D03*
X151871331Y-64166415D03*
X151871331Y-63666415D03*
%TD*%
D34*
%TO.C,C29*%
X162887294Y-62754888D03*
X163721854Y-62531268D03*
%TD*%
D40*
%TO.C,C17*%
X171227606Y-90543116D03*
X170393046Y-90766736D03*
%TD*%
D13*
%TO.C,C2*%
X138790331Y-83513415D03*
X138790331Y-82649415D03*
%TD*%
D41*
%TO.C,C3*%
X147154331Y-68222415D03*
X148714331Y-68222415D03*
%TD*%
D42*
%TO.C,C25*%
X152939716Y-73313406D03*
X153163336Y-72478846D03*
%TD*%
M02*
