%TF.GenerationSoftware,KiCad,Pcbnew,10.0.3*%
%TF.CreationDate,2026-07-01T22:04:42+03:00*%
%TF.ProjectId,HomeTap,486f6d65-5461-4702-9e6b-696361645f70,rev?*%
%TF.SameCoordinates,Original*%
%TF.FileFunction,Legend,Bot*%
%TF.FilePolarity,Positive*%
%FSLAX46Y46*%
G04 Gerber Fmt 4.6, Leading zero omitted, Abs format (unit mm)*
G04 Created by KiCad (PCBNEW 10.0.3) date 2026-07-01 22:04:42*
%MOMM*%
%LPD*%
G01*
G04 APERTURE LIST*
%ADD10C,0.150000*%
%ADD11C,0.127000*%
%ADD12C,0.200000*%
G04 APERTURE END LIST*
D10*
X152443521Y-81821913D02*
X153409447Y-81563094D01*
X153409447Y-81563094D02*
X153347824Y-81333112D01*
X153347824Y-81333112D02*
X153264853Y-81207447D01*
X153264853Y-81207447D02*
X153148211Y-81140104D01*
X153148211Y-81140104D02*
X153043893Y-81118757D01*
X153043893Y-81118757D02*
X152847582Y-81122059D01*
X152847582Y-81122059D02*
X152709593Y-81159033D01*
X152709593Y-81159033D02*
X152537932Y-81254329D01*
X152537932Y-81254329D02*
X152458264Y-81324974D01*
X152458264Y-81324974D02*
X152390920Y-81441617D01*
X152390920Y-81441617D02*
X152381898Y-81591931D01*
X152381898Y-81591931D02*
X152443521Y-81821913D01*
X152049130Y-80350026D02*
X152197027Y-80901984D01*
X152123079Y-80626005D02*
X153089005Y-80367186D01*
X153089005Y-80367186D02*
X152975665Y-80496153D01*
X152975665Y-80496153D02*
X152908321Y-80612796D01*
X152908321Y-80612796D02*
X152886974Y-80717113D01*
X152453191Y-79650172D02*
X152523837Y-79729840D01*
X152523837Y-79729840D02*
X152582158Y-79763512D01*
X152582158Y-79763512D02*
X152686476Y-79784859D01*
X152686476Y-79784859D02*
X152732473Y-79772534D01*
X152732473Y-79772534D02*
X152812141Y-79701888D01*
X152812141Y-79701888D02*
X152845813Y-79643567D01*
X152845813Y-79643567D02*
X152867160Y-79539250D01*
X152867160Y-79539250D02*
X152817861Y-79355264D01*
X152817861Y-79355264D02*
X152747215Y-79275596D01*
X152747215Y-79275596D02*
X152688894Y-79241924D01*
X152688894Y-79241924D02*
X152584576Y-79220577D01*
X152584576Y-79220577D02*
X152538580Y-79232901D01*
X152538580Y-79232901D02*
X152458911Y-79303547D01*
X152458911Y-79303547D02*
X152425240Y-79361869D01*
X152425240Y-79361869D02*
X152403893Y-79466186D01*
X152403893Y-79466186D02*
X152453191Y-79650172D01*
X152453191Y-79650172D02*
X152431844Y-79754490D01*
X152431844Y-79754490D02*
X152398173Y-79812811D01*
X152398173Y-79812811D02*
X152318504Y-79883457D01*
X152318504Y-79883457D02*
X152134519Y-79932756D01*
X152134519Y-79932756D02*
X152030201Y-79911409D01*
X152030201Y-79911409D02*
X151971880Y-79877737D01*
X151971880Y-79877737D02*
X151901234Y-79798069D01*
X151901234Y-79798069D02*
X151851935Y-79614083D01*
X151851935Y-79614083D02*
X151873282Y-79509765D01*
X151873282Y-79509765D02*
X151906954Y-79451444D01*
X151906954Y-79451444D02*
X151986622Y-79380798D01*
X151986622Y-79380798D02*
X152170608Y-79331499D01*
X152170608Y-79331499D02*
X152274925Y-79352846D01*
X152274925Y-79352846D02*
X152333247Y-79386518D01*
X152333247Y-79386518D02*
X152403893Y-79466186D01*
X160836461Y-63445362D02*
X160336461Y-62579337D01*
X160336461Y-62579337D02*
X160130265Y-62698385D01*
X160130265Y-62698385D02*
X160030356Y-62811053D01*
X160030356Y-62811053D02*
X159995497Y-62941150D01*
X159995497Y-62941150D02*
X160001877Y-63047438D01*
X160001877Y-63047438D02*
X160055875Y-63236205D01*
X160055875Y-63236205D02*
X160127304Y-63359923D01*
X160127304Y-63359923D02*
X160263781Y-63501071D01*
X160263781Y-63501071D02*
X160352640Y-63559740D01*
X160352640Y-63559740D02*
X160482737Y-63594599D01*
X160482737Y-63594599D02*
X160630265Y-63564410D01*
X160630265Y-63564410D02*
X160836461Y-63445362D01*
X159559294Y-63138006D02*
X159494245Y-63120576D01*
X159494245Y-63120576D02*
X159387957Y-63126956D01*
X159387957Y-63126956D02*
X159181761Y-63246004D01*
X159181761Y-63246004D02*
X159123092Y-63334862D01*
X159123092Y-63334862D02*
X159105662Y-63399911D01*
X159105662Y-63399911D02*
X159112042Y-63506199D01*
X159112042Y-63506199D02*
X159159661Y-63588678D01*
X159159661Y-63588678D02*
X159272329Y-63688586D01*
X159272329Y-63688586D02*
X160052915Y-63897743D01*
X160052915Y-63897743D02*
X159516804Y-64207267D01*
X158728128Y-63507909D02*
X158192017Y-63817432D01*
X158192017Y-63817432D02*
X158671169Y-63980680D01*
X158671169Y-63980680D02*
X158547451Y-64052109D01*
X158547451Y-64052109D02*
X158488782Y-64140967D01*
X158488782Y-64140967D02*
X158471352Y-64206016D01*
X158471352Y-64206016D02*
X158477732Y-64312304D01*
X158477732Y-64312304D02*
X158596779Y-64518501D01*
X158596779Y-64518501D02*
X158685638Y-64577170D01*
X158685638Y-64577170D02*
X158750687Y-64594599D01*
X158750687Y-64594599D02*
X158856975Y-64588220D01*
X158856975Y-64588220D02*
X159104410Y-64445362D01*
X159104410Y-64445362D02*
X159163080Y-64356504D01*
X159163080Y-64356504D02*
X159180509Y-64291455D01*
X174969249Y-64421553D02*
X175469249Y-63555527D01*
X175469249Y-63555527D02*
X175263052Y-63436480D01*
X175263052Y-63436480D02*
X175115525Y-63406290D01*
X175115525Y-63406290D02*
X174985427Y-63441150D01*
X174985427Y-63441150D02*
X174896569Y-63499819D01*
X174896569Y-63499819D02*
X174760091Y-63640967D01*
X174760091Y-63640967D02*
X174688663Y-63764685D01*
X174688663Y-63764685D02*
X174634664Y-63953451D01*
X174634664Y-63953451D02*
X174628284Y-64059740D01*
X174628284Y-64059740D02*
X174663144Y-64189837D01*
X174663144Y-64189837D02*
X174763052Y-64302505D01*
X174763052Y-64302505D02*
X174969249Y-64421553D01*
X174685702Y-63103146D02*
X174149591Y-62793623D01*
X174149591Y-62793623D02*
X174247790Y-63290204D01*
X174247790Y-63290204D02*
X174124072Y-63218775D01*
X174124072Y-63218775D02*
X174017784Y-63212395D01*
X174017784Y-63212395D02*
X173952735Y-63229825D01*
X173952735Y-63229825D02*
X173863877Y-63288494D01*
X173863877Y-63288494D02*
X173744829Y-63494691D01*
X173744829Y-63494691D02*
X173738449Y-63600979D01*
X173738449Y-63600979D02*
X173755879Y-63666028D01*
X173755879Y-63666028D02*
X173814548Y-63754886D01*
X173814548Y-63754886D02*
X174061984Y-63897743D01*
X174061984Y-63897743D02*
X174168272Y-63904123D01*
X174168272Y-63904123D02*
X174233321Y-63886693D01*
X157631084Y-65505376D02*
X156923977Y-64798270D01*
X156923977Y-64798270D02*
X156755618Y-64966628D01*
X156755618Y-64966628D02*
X156688275Y-65101315D01*
X156688275Y-65101315D02*
X156688275Y-65236002D01*
X156688275Y-65236002D02*
X156721947Y-65337018D01*
X156721947Y-65337018D02*
X156822962Y-65505376D01*
X156822962Y-65505376D02*
X156923977Y-65606392D01*
X156923977Y-65606392D02*
X157092336Y-65707407D01*
X157092336Y-65707407D02*
X157193351Y-65741079D01*
X157193351Y-65741079D02*
X157328038Y-65741079D01*
X157328038Y-65741079D02*
X157462725Y-65673735D01*
X157462725Y-65673735D02*
X157631084Y-65505376D01*
X156317886Y-65539048D02*
X156250542Y-65539048D01*
X156250542Y-65539048D02*
X156149527Y-65572720D01*
X156149527Y-65572720D02*
X155981168Y-65741079D01*
X155981168Y-65741079D02*
X155947496Y-65842094D01*
X155947496Y-65842094D02*
X155947496Y-65909437D01*
X155947496Y-65909437D02*
X155981168Y-66010453D01*
X155981168Y-66010453D02*
X156048512Y-66077796D01*
X156048512Y-66077796D02*
X156183199Y-66145140D01*
X156183199Y-66145140D02*
X156991321Y-66145140D01*
X156991321Y-66145140D02*
X156553588Y-66582872D01*
X155644450Y-66212483D02*
X155577107Y-66212483D01*
X155577107Y-66212483D02*
X155476092Y-66246155D01*
X155476092Y-66246155D02*
X155307733Y-66414514D01*
X155307733Y-66414514D02*
X155274061Y-66515529D01*
X155274061Y-66515529D02*
X155274061Y-66582873D01*
X155274061Y-66582873D02*
X155307733Y-66683888D01*
X155307733Y-66683888D02*
X155375076Y-66751231D01*
X155375076Y-66751231D02*
X155509763Y-66818575D01*
X155509763Y-66818575D02*
X156317885Y-66818575D01*
X156317885Y-66818575D02*
X155880153Y-67256308D01*
X156987873Y-88435838D02*
X157694979Y-87728731D01*
X157694979Y-87728731D02*
X157526621Y-87560372D01*
X157526621Y-87560372D02*
X157391934Y-87493029D01*
X157391934Y-87493029D02*
X157257247Y-87493029D01*
X157257247Y-87493029D02*
X157156231Y-87526701D01*
X157156231Y-87526701D02*
X156987873Y-87627716D01*
X156987873Y-87627716D02*
X156886857Y-87728731D01*
X156886857Y-87728731D02*
X156785842Y-87897090D01*
X156785842Y-87897090D02*
X156752170Y-87998105D01*
X156752170Y-87998105D02*
X156752170Y-88132792D01*
X156752170Y-88132792D02*
X156819514Y-88267479D01*
X156819514Y-88267479D02*
X156987873Y-88435838D01*
X155910377Y-87358342D02*
X156314438Y-87762403D01*
X156112407Y-87560372D02*
X156819514Y-86853266D01*
X156819514Y-86853266D02*
X156785842Y-87021624D01*
X156785842Y-87021624D02*
X156785842Y-87156311D01*
X156785842Y-87156311D02*
X156819514Y-87257327D01*
X156011392Y-86045143D02*
X156146079Y-86179830D01*
X156146079Y-86179830D02*
X156179750Y-86280846D01*
X156179750Y-86280846D02*
X156179750Y-86348189D01*
X156179750Y-86348189D02*
X156146079Y-86516548D01*
X156146079Y-86516548D02*
X156045063Y-86684907D01*
X156045063Y-86684907D02*
X155775689Y-86954281D01*
X155775689Y-86954281D02*
X155674674Y-86987952D01*
X155674674Y-86987952D02*
X155607331Y-86987952D01*
X155607331Y-86987952D02*
X155506315Y-86954281D01*
X155506315Y-86954281D02*
X155371628Y-86819594D01*
X155371628Y-86819594D02*
X155337957Y-86718578D01*
X155337957Y-86718578D02*
X155337957Y-86651235D01*
X155337957Y-86651235D02*
X155371628Y-86550220D01*
X155371628Y-86550220D02*
X155539987Y-86381861D01*
X155539987Y-86381861D02*
X155641002Y-86348189D01*
X155641002Y-86348189D02*
X155708346Y-86348189D01*
X155708346Y-86348189D02*
X155809361Y-86381861D01*
X155809361Y-86381861D02*
X155944048Y-86516548D01*
X155944048Y-86516548D02*
X155977720Y-86617563D01*
X155977720Y-86617563D02*
X155977720Y-86684907D01*
X155977720Y-86684907D02*
X155944048Y-86785922D01*
X164230358Y-91891490D02*
X164489177Y-90925564D01*
X164489177Y-90925564D02*
X164259194Y-90863941D01*
X164259194Y-90863941D02*
X164108880Y-90872963D01*
X164108880Y-90872963D02*
X163992238Y-90940307D01*
X163992238Y-90940307D02*
X163921592Y-91019975D01*
X163921592Y-91019975D02*
X163826297Y-91191636D01*
X163826297Y-91191636D02*
X163789322Y-91329625D01*
X163789322Y-91329625D02*
X163786020Y-91525936D01*
X163786020Y-91525936D02*
X163807367Y-91630254D01*
X163807367Y-91630254D02*
X163874711Y-91746896D01*
X163874711Y-91746896D02*
X164000375Y-91829867D01*
X164000375Y-91829867D02*
X164230358Y-91891490D01*
X162758471Y-91497099D02*
X163310428Y-91644996D01*
X163034449Y-91571048D02*
X163293269Y-90605122D01*
X163293269Y-90605122D02*
X163348287Y-90767761D01*
X163348287Y-90767761D02*
X163415631Y-90884403D01*
X163415631Y-90884403D02*
X163495299Y-90955049D01*
X162103080Y-90631304D02*
X161930534Y-91275254D01*
X162431660Y-90324956D02*
X162476772Y-91076526D01*
X162476772Y-91076526D02*
X161878818Y-90916305D01*
X152512269Y-75434716D02*
X151512269Y-75434716D01*
X151512269Y-75434716D02*
X151512269Y-75672811D01*
X151512269Y-75672811D02*
X151559888Y-75815668D01*
X151559888Y-75815668D02*
X151655126Y-75910906D01*
X151655126Y-75910906D02*
X151750364Y-75958525D01*
X151750364Y-75958525D02*
X151940840Y-76006144D01*
X151940840Y-76006144D02*
X152083697Y-76006144D01*
X152083697Y-76006144D02*
X152274173Y-75958525D01*
X152274173Y-75958525D02*
X152369411Y-75910906D01*
X152369411Y-75910906D02*
X152464650Y-75815668D01*
X152464650Y-75815668D02*
X152512269Y-75672811D01*
X152512269Y-75672811D02*
X152512269Y-75434716D01*
X152512269Y-76958525D02*
X152512269Y-76387097D01*
X152512269Y-76672811D02*
X151512269Y-76672811D01*
X151512269Y-76672811D02*
X151655126Y-76577573D01*
X151655126Y-76577573D02*
X151750364Y-76482335D01*
X151750364Y-76482335D02*
X151797983Y-76387097D01*
X152512269Y-77434716D02*
X152512269Y-77625192D01*
X152512269Y-77625192D02*
X152464650Y-77720430D01*
X152464650Y-77720430D02*
X152417030Y-77768049D01*
X152417030Y-77768049D02*
X152274173Y-77863287D01*
X152274173Y-77863287D02*
X152083697Y-77910906D01*
X152083697Y-77910906D02*
X151702745Y-77910906D01*
X151702745Y-77910906D02*
X151607507Y-77863287D01*
X151607507Y-77863287D02*
X151559888Y-77815668D01*
X151559888Y-77815668D02*
X151512269Y-77720430D01*
X151512269Y-77720430D02*
X151512269Y-77529954D01*
X151512269Y-77529954D02*
X151559888Y-77434716D01*
X151559888Y-77434716D02*
X151607507Y-77387097D01*
X151607507Y-77387097D02*
X151702745Y-77339478D01*
X151702745Y-77339478D02*
X151940840Y-77339478D01*
X151940840Y-77339478D02*
X152036078Y-77387097D01*
X152036078Y-77387097D02*
X152083697Y-77434716D01*
X152083697Y-77434716D02*
X152131316Y-77529954D01*
X152131316Y-77529954D02*
X152131316Y-77720430D01*
X152131316Y-77720430D02*
X152083697Y-77815668D01*
X152083697Y-77815668D02*
X152036078Y-77863287D01*
X152036078Y-77863287D02*
X151940840Y-77910906D01*
X182512269Y-75910907D02*
X181512269Y-75910907D01*
X181512269Y-75910907D02*
X181512269Y-76149002D01*
X181512269Y-76149002D02*
X181559888Y-76291859D01*
X181559888Y-76291859D02*
X181655126Y-76387097D01*
X181655126Y-76387097D02*
X181750364Y-76434716D01*
X181750364Y-76434716D02*
X181940840Y-76482335D01*
X181940840Y-76482335D02*
X182083697Y-76482335D01*
X182083697Y-76482335D02*
X182274173Y-76434716D01*
X182274173Y-76434716D02*
X182369411Y-76387097D01*
X182369411Y-76387097D02*
X182464650Y-76291859D01*
X182464650Y-76291859D02*
X182512269Y-76149002D01*
X182512269Y-76149002D02*
X182512269Y-75910907D01*
X181512269Y-76815669D02*
X181512269Y-77482335D01*
X181512269Y-77482335D02*
X182512269Y-77053764D01*
X153322164Y-71711521D02*
X152356238Y-71452702D01*
X152356238Y-71452702D02*
X152294615Y-71682685D01*
X152294615Y-71682685D02*
X152303637Y-71832999D01*
X152303637Y-71832999D02*
X152370981Y-71949641D01*
X152370981Y-71949641D02*
X152450649Y-72020287D01*
X152450649Y-72020287D02*
X152622310Y-72115582D01*
X152622310Y-72115582D02*
X152760299Y-72152557D01*
X152760299Y-72152557D02*
X152956610Y-72155859D01*
X152956610Y-72155859D02*
X153060928Y-72134512D01*
X153060928Y-72134512D02*
X153177570Y-72067168D01*
X153177570Y-72067168D02*
X153260541Y-71941504D01*
X153260541Y-71941504D02*
X153322164Y-71711521D01*
X152201737Y-72397281D02*
X152143416Y-72430953D01*
X152143416Y-72430953D02*
X152072770Y-72510621D01*
X152072770Y-72510621D02*
X152011146Y-72740603D01*
X152011146Y-72740603D02*
X152032493Y-72844921D01*
X152032493Y-72844921D02*
X152066165Y-72903242D01*
X152066165Y-72903242D02*
X152145833Y-72973888D01*
X152145833Y-72973888D02*
X152237826Y-72998538D01*
X152237826Y-72998538D02*
X152388140Y-72989515D01*
X152388140Y-72989515D02*
X153087995Y-72585454D01*
X153087995Y-72585454D02*
X152927773Y-73183408D01*
X151801626Y-73522543D02*
X151776977Y-73614536D01*
X151776977Y-73614536D02*
X151798324Y-73718854D01*
X151798324Y-73718854D02*
X151831996Y-73777175D01*
X151831996Y-73777175D02*
X151911664Y-73847821D01*
X151911664Y-73847821D02*
X152083325Y-73943116D01*
X152083325Y-73943116D02*
X152313307Y-74004740D01*
X152313307Y-74004740D02*
X152509618Y-74008042D01*
X152509618Y-74008042D02*
X152613935Y-73986695D01*
X152613935Y-73986695D02*
X152672257Y-73953024D01*
X152672257Y-73953024D02*
X152742903Y-73873355D01*
X152742903Y-73873355D02*
X152767552Y-73781362D01*
X152767552Y-73781362D02*
X152746205Y-73677045D01*
X152746205Y-73677045D02*
X152712533Y-73618724D01*
X152712533Y-73618724D02*
X152632865Y-73548078D01*
X152632865Y-73548078D02*
X152461204Y-73452782D01*
X152461204Y-73452782D02*
X152231221Y-73391159D01*
X152231221Y-73391159D02*
X152034911Y-73387856D01*
X152034911Y-73387856D02*
X151930593Y-73409203D01*
X151930593Y-73409203D02*
X151872272Y-73442875D01*
X151872272Y-73442875D02*
X151801626Y-73522543D01*
X177864357Y-66885918D02*
X178571463Y-66178811D01*
X178571463Y-66178811D02*
X178403105Y-66010452D01*
X178403105Y-66010452D02*
X178268418Y-65943109D01*
X178268418Y-65943109D02*
X178133731Y-65943109D01*
X178133731Y-65943109D02*
X178032715Y-65976781D01*
X178032715Y-65976781D02*
X177864357Y-66077796D01*
X177864357Y-66077796D02*
X177763341Y-66178811D01*
X177763341Y-66178811D02*
X177662326Y-66347170D01*
X177662326Y-66347170D02*
X177628654Y-66448185D01*
X177628654Y-66448185D02*
X177628654Y-66582872D01*
X177628654Y-66582872D02*
X177695998Y-66717559D01*
X177695998Y-66717559D02*
X177864357Y-66885918D01*
X177325609Y-65404361D02*
X176854204Y-65875765D01*
X177763341Y-65303346D02*
X177426624Y-65976781D01*
X177426624Y-65976781D02*
X176988891Y-65539048D01*
X155068096Y-68324809D02*
X154202071Y-67824809D01*
X154202071Y-67824809D02*
X154083023Y-68031005D01*
X154083023Y-68031005D02*
X154052834Y-68178533D01*
X154052834Y-68178533D02*
X154087694Y-68308630D01*
X154087694Y-68308630D02*
X154146363Y-68397489D01*
X154146363Y-68397489D02*
X154287510Y-68533966D01*
X154287510Y-68533966D02*
X154411228Y-68605395D01*
X154411228Y-68605395D02*
X154599995Y-68659393D01*
X154599995Y-68659393D02*
X154706283Y-68665773D01*
X154706283Y-68665773D02*
X154836381Y-68630914D01*
X154836381Y-68630914D02*
X154949049Y-68531005D01*
X154949049Y-68531005D02*
X155068096Y-68324809D01*
X153808359Y-68697214D02*
X153743310Y-68714644D01*
X153743310Y-68714644D02*
X153654452Y-68773313D01*
X153654452Y-68773313D02*
X153535404Y-68979509D01*
X153535404Y-68979509D02*
X153529024Y-69085797D01*
X153529024Y-69085797D02*
X153546454Y-69150846D01*
X153546454Y-69150846D02*
X153605123Y-69239705D01*
X153605123Y-69239705D02*
X153687602Y-69287324D01*
X153687602Y-69287324D02*
X153835129Y-69317513D01*
X153835129Y-69317513D02*
X154615715Y-69108356D01*
X154615715Y-69108356D02*
X154306191Y-69644466D01*
X153830001Y-70469253D02*
X154115715Y-69974381D01*
X153972858Y-70221817D02*
X153106833Y-69721817D01*
X153106833Y-69721817D02*
X153278170Y-69710767D01*
X153278170Y-69710767D02*
X153408267Y-69675907D01*
X153408267Y-69675907D02*
X153497126Y-69617238D01*
X167795544Y-62103821D02*
X167795544Y-61103821D01*
X167795544Y-61103821D02*
X167557449Y-61103821D01*
X167557449Y-61103821D02*
X167414592Y-61151440D01*
X167414592Y-61151440D02*
X167319354Y-61246678D01*
X167319354Y-61246678D02*
X167271735Y-61341916D01*
X167271735Y-61341916D02*
X167224116Y-61532392D01*
X167224116Y-61532392D02*
X167224116Y-61675249D01*
X167224116Y-61675249D02*
X167271735Y-61865725D01*
X167271735Y-61865725D02*
X167319354Y-61960963D01*
X167319354Y-61960963D02*
X167414592Y-62056202D01*
X167414592Y-62056202D02*
X167557449Y-62103821D01*
X167557449Y-62103821D02*
X167795544Y-62103821D01*
X166271735Y-62103821D02*
X166843163Y-62103821D01*
X166557449Y-62103821D02*
X166557449Y-61103821D01*
X166557449Y-61103821D02*
X166652687Y-61246678D01*
X166652687Y-61246678D02*
X166747925Y-61341916D01*
X166747925Y-61341916D02*
X166843163Y-61389535D01*
X172230361Y-91262930D02*
X171971542Y-90297004D01*
X171971542Y-90297004D02*
X171741560Y-90358627D01*
X171741560Y-90358627D02*
X171615895Y-90441598D01*
X171615895Y-90441598D02*
X171548552Y-90558240D01*
X171548552Y-90558240D02*
X171527205Y-90662558D01*
X171527205Y-90662558D02*
X171530507Y-90858869D01*
X171530507Y-90858869D02*
X171567481Y-90996858D01*
X171567481Y-90996858D02*
X171662777Y-91168519D01*
X171662777Y-91168519D02*
X171733422Y-91248187D01*
X171733422Y-91248187D02*
X171850065Y-91315531D01*
X171850065Y-91315531D02*
X172000379Y-91324553D01*
X172000379Y-91324553D02*
X172230361Y-91262930D01*
X170758474Y-91657321D02*
X171310432Y-91509424D01*
X171034453Y-91583372D02*
X170775634Y-90617446D01*
X170775634Y-90617446D02*
X170904601Y-90730786D01*
X170904601Y-90730786D02*
X171021244Y-90798130D01*
X171021244Y-90798130D02*
X171125561Y-90819477D01*
X170156333Y-90881985D02*
X170098012Y-90848314D01*
X170098012Y-90848314D02*
X169993694Y-90826967D01*
X169993694Y-90826967D02*
X169763712Y-90888590D01*
X169763712Y-90888590D02*
X169684044Y-90959236D01*
X169684044Y-90959236D02*
X169650372Y-91017557D01*
X169650372Y-91017557D02*
X169629025Y-91121875D01*
X169629025Y-91121875D02*
X169653674Y-91213868D01*
X169653674Y-91213868D02*
X169736645Y-91339533D01*
X169736645Y-91339533D02*
X170436499Y-91743594D01*
X170436499Y-91743594D02*
X169838545Y-91903815D01*
X164465789Y-62285156D02*
X164206970Y-61319230D01*
X164206970Y-61319230D02*
X163976988Y-61380853D01*
X163976988Y-61380853D02*
X163851323Y-61463824D01*
X163851323Y-61463824D02*
X163783980Y-61580466D01*
X163783980Y-61580466D02*
X163762633Y-61684784D01*
X163762633Y-61684784D02*
X163765935Y-61881095D01*
X163765935Y-61881095D02*
X163802909Y-62019084D01*
X163802909Y-62019084D02*
X163898205Y-62190745D01*
X163898205Y-62190745D02*
X163968850Y-62270413D01*
X163968850Y-62270413D02*
X164085493Y-62337757D01*
X164085493Y-62337757D02*
X164235807Y-62346779D01*
X164235807Y-62346779D02*
X164465789Y-62285156D01*
X163311690Y-61657717D02*
X163253369Y-61624045D01*
X163253369Y-61624045D02*
X163149052Y-61602698D01*
X163149052Y-61602698D02*
X162919069Y-61664322D01*
X162919069Y-61664322D02*
X162839401Y-61734968D01*
X162839401Y-61734968D02*
X162805729Y-61793289D01*
X162805729Y-61793289D02*
X162784382Y-61897607D01*
X162784382Y-61897607D02*
X162809032Y-61989600D01*
X162809032Y-61989600D02*
X162892002Y-62115264D01*
X162892002Y-62115264D02*
X163591856Y-62519325D01*
X163591856Y-62519325D02*
X162993902Y-62679547D01*
X161993420Y-62257441D02*
X162165966Y-62901392D01*
X162124804Y-61827846D02*
X162539658Y-62456169D01*
X162539658Y-62456169D02*
X161941703Y-62616390D01*
X178844286Y-86718578D02*
X178137179Y-86011472D01*
X178137179Y-86011472D02*
X177968820Y-86179830D01*
X177968820Y-86179830D02*
X177901477Y-86314517D01*
X177901477Y-86314517D02*
X177901477Y-86449204D01*
X177901477Y-86449204D02*
X177935149Y-86550220D01*
X177935149Y-86550220D02*
X178036164Y-86718578D01*
X178036164Y-86718578D02*
X178137179Y-86819594D01*
X178137179Y-86819594D02*
X178305538Y-86920609D01*
X178305538Y-86920609D02*
X178406553Y-86954281D01*
X178406553Y-86954281D02*
X178541240Y-86954281D01*
X178541240Y-86954281D02*
X178675927Y-86886937D01*
X178675927Y-86886937D02*
X178844286Y-86718578D01*
X177766790Y-87796074D02*
X178170851Y-87392013D01*
X177968820Y-87594044D02*
X177261714Y-86886937D01*
X177261714Y-86886937D02*
X177430072Y-86920609D01*
X177430072Y-86920609D02*
X177564759Y-86920609D01*
X177564759Y-86920609D02*
X177665775Y-86886937D01*
X176621950Y-87526701D02*
X176554607Y-87594044D01*
X176554607Y-87594044D02*
X176520935Y-87695059D01*
X176520935Y-87695059D02*
X176520935Y-87762403D01*
X176520935Y-87762403D02*
X176554607Y-87863418D01*
X176554607Y-87863418D02*
X176655622Y-88031777D01*
X176655622Y-88031777D02*
X176823981Y-88200136D01*
X176823981Y-88200136D02*
X176992339Y-88301151D01*
X176992339Y-88301151D02*
X177093355Y-88334823D01*
X177093355Y-88334823D02*
X177160698Y-88334823D01*
X177160698Y-88334823D02*
X177261713Y-88301151D01*
X177261713Y-88301151D02*
X177329057Y-88233807D01*
X177329057Y-88233807D02*
X177362729Y-88132792D01*
X177362729Y-88132792D02*
X177362729Y-88065449D01*
X177362729Y-88065449D02*
X177329057Y-87964433D01*
X177329057Y-87964433D02*
X177228042Y-87796075D01*
X177228042Y-87796075D02*
X177059683Y-87627716D01*
X177059683Y-87627716D02*
X176891324Y-87526701D01*
X176891324Y-87526701D02*
X176790309Y-87493029D01*
X176790309Y-87493029D02*
X176722965Y-87493029D01*
X176722965Y-87493029D02*
X176621950Y-87526701D01*
X160381642Y-90640410D02*
X160881642Y-89774385D01*
X160881642Y-89774385D02*
X160675446Y-89655337D01*
X160675446Y-89655337D02*
X160527918Y-89625148D01*
X160527918Y-89625148D02*
X160397821Y-89660008D01*
X160397821Y-89660008D02*
X160308962Y-89718677D01*
X160308962Y-89718677D02*
X160172485Y-89859824D01*
X160172485Y-89859824D02*
X160101056Y-89983542D01*
X160101056Y-89983542D02*
X160047058Y-90172309D01*
X160047058Y-90172309D02*
X160040678Y-90278597D01*
X160040678Y-90278597D02*
X160075537Y-90408695D01*
X160075537Y-90408695D02*
X160175446Y-90521363D01*
X160175446Y-90521363D02*
X160381642Y-90640410D01*
X159061985Y-89878505D02*
X159556856Y-90164220D01*
X159309420Y-90021363D02*
X159809420Y-89155337D01*
X159809420Y-89155337D02*
X159820470Y-89326674D01*
X159820470Y-89326674D02*
X159855330Y-89456772D01*
X159855330Y-89456772D02*
X159913999Y-89545630D01*
X158778438Y-88560099D02*
X159190831Y-88798194D01*
X159190831Y-88798194D02*
X158993975Y-89234397D01*
X158993975Y-89234397D02*
X158976545Y-89169348D01*
X158976545Y-89169348D02*
X158917876Y-89080490D01*
X158917876Y-89080490D02*
X158711679Y-88961442D01*
X158711679Y-88961442D02*
X158605391Y-88955062D01*
X158605391Y-88955062D02*
X158540342Y-88972492D01*
X158540342Y-88972492D02*
X158451484Y-89031161D01*
X158451484Y-89031161D02*
X158332436Y-89237358D01*
X158332436Y-89237358D02*
X158326057Y-89343646D01*
X158326057Y-89343646D02*
X158343487Y-89408695D01*
X158343487Y-89408695D02*
X158402156Y-89497553D01*
X158402156Y-89497553D02*
X158608352Y-89616601D01*
X158608352Y-89616601D02*
X158714640Y-89622980D01*
X158714640Y-89622980D02*
X158779689Y-89605551D01*
X182176691Y-79936059D02*
X181210765Y-79677239D01*
X181210765Y-79677239D02*
X181149142Y-79907222D01*
X181149142Y-79907222D02*
X181158164Y-80057536D01*
X181158164Y-80057536D02*
X181225507Y-80174178D01*
X181225507Y-80174178D02*
X181305176Y-80244824D01*
X181305176Y-80244824D02*
X181476837Y-80340120D01*
X181476837Y-80340120D02*
X181614826Y-80377094D01*
X181614826Y-80377094D02*
X181811137Y-80380396D01*
X181811137Y-80380396D02*
X181915454Y-80359049D01*
X181915454Y-80359049D02*
X182032097Y-80291706D01*
X182032097Y-80291706D02*
X182115067Y-80166041D01*
X182115067Y-80166041D02*
X182176691Y-79936059D01*
X181328940Y-80892077D02*
X181307593Y-80787760D01*
X181307593Y-80787760D02*
X181273921Y-80729438D01*
X181273921Y-80729438D02*
X181194253Y-80658792D01*
X181194253Y-80658792D02*
X181148257Y-80646468D01*
X181148257Y-80646468D02*
X181043939Y-80667815D01*
X181043939Y-80667815D02*
X180985618Y-80701487D01*
X180985618Y-80701487D02*
X180914972Y-80781155D01*
X180914972Y-80781155D02*
X180865673Y-80965141D01*
X180865673Y-80965141D02*
X180887020Y-81069458D01*
X180887020Y-81069458D02*
X180920692Y-81127779D01*
X180920692Y-81127779D02*
X181000360Y-81198425D01*
X181000360Y-81198425D02*
X181046357Y-81210750D01*
X181046357Y-81210750D02*
X181150674Y-81189403D01*
X181150674Y-81189403D02*
X181208995Y-81155731D01*
X181208995Y-81155731D02*
X181279641Y-81076063D01*
X181279641Y-81076063D02*
X181328940Y-80892077D01*
X181328940Y-80892077D02*
X181399586Y-80812409D01*
X181399586Y-80812409D02*
X181457907Y-80778737D01*
X181457907Y-80778737D02*
X181562225Y-80757390D01*
X181562225Y-80757390D02*
X181746211Y-80806689D01*
X181746211Y-80806689D02*
X181825879Y-80877335D01*
X181825879Y-80877335D02*
X181859551Y-80935656D01*
X181859551Y-80935656D02*
X181880898Y-81039974D01*
X181880898Y-81039974D02*
X181831599Y-81223960D01*
X181831599Y-81223960D02*
X181760953Y-81303628D01*
X181760953Y-81303628D02*
X181702632Y-81337300D01*
X181702632Y-81337300D02*
X181598314Y-81358647D01*
X181598314Y-81358647D02*
X181414328Y-81309348D01*
X181414328Y-81309348D02*
X181334660Y-81238702D01*
X181334660Y-81238702D02*
X181300988Y-81180381D01*
X181300988Y-81180381D02*
X181279641Y-81076063D01*
X180022993Y-70015620D02*
X180889018Y-69515620D01*
X180889018Y-69515620D02*
X180769971Y-69309423D01*
X180769971Y-69309423D02*
X180657303Y-69209515D01*
X180657303Y-69209515D02*
X180527205Y-69174655D01*
X180527205Y-69174655D02*
X180420917Y-69181035D01*
X180420917Y-69181035D02*
X180232150Y-69235034D01*
X180232150Y-69235034D02*
X180108432Y-69306462D01*
X180108432Y-69306462D02*
X179967285Y-69442940D01*
X179967285Y-69442940D02*
X179908616Y-69531798D01*
X179908616Y-69531798D02*
X179873756Y-69661896D01*
X179873756Y-69661896D02*
X179903945Y-69809423D01*
X179903945Y-69809423D02*
X180022993Y-70015620D01*
X180150923Y-68237201D02*
X180389018Y-68649594D01*
X180389018Y-68649594D02*
X180000435Y-68928929D01*
X180000435Y-68928929D02*
X180017865Y-68863880D01*
X180017865Y-68863880D02*
X180011485Y-68757592D01*
X180011485Y-68757592D02*
X179892437Y-68551395D01*
X179892437Y-68551395D02*
X179803579Y-68492726D01*
X179803579Y-68492726D02*
X179738530Y-68475297D01*
X179738530Y-68475297D02*
X179632242Y-68481676D01*
X179632242Y-68481676D02*
X179426045Y-68600724D01*
X179426045Y-68600724D02*
X179367376Y-68689582D01*
X179367376Y-68689582D02*
X179349947Y-68754631D01*
X179349947Y-68754631D02*
X179356326Y-68860919D01*
X179356326Y-68860919D02*
X179475374Y-69067116D01*
X179475374Y-69067116D02*
X179564232Y-69125785D01*
X179564232Y-69125785D02*
X179629281Y-69143215D01*
X154280327Y-85428013D02*
X155146352Y-84928013D01*
X155146352Y-84928013D02*
X155027304Y-84721817D01*
X155027304Y-84721817D02*
X154914636Y-84621908D01*
X154914636Y-84621908D02*
X154784539Y-84587049D01*
X154784539Y-84587049D02*
X154678251Y-84593429D01*
X154678251Y-84593429D02*
X154489484Y-84647427D01*
X154489484Y-84647427D02*
X154365766Y-84718856D01*
X154365766Y-84718856D02*
X154224618Y-84855333D01*
X154224618Y-84855333D02*
X154165949Y-84944192D01*
X154165949Y-84944192D02*
X154131090Y-85074289D01*
X154131090Y-85074289D02*
X154161279Y-85221817D01*
X154161279Y-85221817D02*
X154280327Y-85428013D01*
X153518422Y-84108356D02*
X153804136Y-84603227D01*
X153661279Y-84355791D02*
X154527304Y-83855791D01*
X154527304Y-83855791D02*
X154451205Y-84009699D01*
X154451205Y-84009699D02*
X154416346Y-84139796D01*
X154416346Y-84139796D02*
X154422726Y-84246084D01*
X154217780Y-83319680D02*
X153884447Y-82742330D01*
X153884447Y-82742330D02*
X153232707Y-83613484D01*
X171534964Y-62790469D02*
X171793784Y-61824543D01*
X171793784Y-61824543D02*
X171563801Y-61762920D01*
X171563801Y-61762920D02*
X171413487Y-61771942D01*
X171413487Y-61771942D02*
X171296845Y-61839285D01*
X171296845Y-61839285D02*
X171226199Y-61918954D01*
X171226199Y-61918954D02*
X171130903Y-62090615D01*
X171130903Y-62090615D02*
X171093929Y-62228604D01*
X171093929Y-62228604D02*
X171090627Y-62424915D01*
X171090627Y-62424915D02*
X171111974Y-62529232D01*
X171111974Y-62529232D02*
X171179317Y-62645875D01*
X171179317Y-62645875D02*
X171304982Y-62728845D01*
X171304982Y-62728845D02*
X171534964Y-62790469D01*
X170849205Y-61670042D02*
X170815533Y-61611721D01*
X170815533Y-61611721D02*
X170735865Y-61541075D01*
X170735865Y-61541075D02*
X170505882Y-61479451D01*
X170505882Y-61479451D02*
X170401565Y-61500798D01*
X170401565Y-61500798D02*
X170343244Y-61534470D01*
X170343244Y-61534470D02*
X170272598Y-61614138D01*
X170272598Y-61614138D02*
X170247948Y-61706131D01*
X170247948Y-61706131D02*
X170256971Y-61856445D01*
X170256971Y-61856445D02*
X170661032Y-62556299D01*
X170661032Y-62556299D02*
X170063077Y-62396078D01*
X181298048Y-73597376D02*
X182263974Y-73338557D01*
X182263974Y-73338557D02*
X182202350Y-73108575D01*
X182202350Y-73108575D02*
X182119380Y-72982910D01*
X182119380Y-72982910D02*
X182002737Y-72915567D01*
X182002737Y-72915567D02*
X181898420Y-72894220D01*
X181898420Y-72894220D02*
X181702109Y-72897522D01*
X181702109Y-72897522D02*
X181564120Y-72934496D01*
X181564120Y-72934496D02*
X181392458Y-73029791D01*
X181392458Y-73029791D02*
X181312790Y-73100437D01*
X181312790Y-73100437D02*
X181245447Y-73217080D01*
X181245447Y-73217080D02*
X181236424Y-73367394D01*
X181236424Y-73367394D02*
X181298048Y-73597376D01*
X181894232Y-71958663D02*
X181943531Y-72142649D01*
X181943531Y-72142649D02*
X181922184Y-72246967D01*
X181922184Y-72246967D02*
X181888512Y-72305288D01*
X181888512Y-72305288D02*
X181775172Y-72434255D01*
X181775172Y-72434255D02*
X181603511Y-72529550D01*
X181603511Y-72529550D02*
X181235540Y-72628148D01*
X181235540Y-72628148D02*
X181131222Y-72606801D01*
X181131222Y-72606801D02*
X181072901Y-72573129D01*
X181072901Y-72573129D02*
X181002255Y-72493461D01*
X181002255Y-72493461D02*
X180952956Y-72309475D01*
X180952956Y-72309475D02*
X180974303Y-72205157D01*
X180974303Y-72205157D02*
X181007975Y-72146836D01*
X181007975Y-72146836D02*
X181087643Y-72076190D01*
X181087643Y-72076190D02*
X181317625Y-72014567D01*
X181317625Y-72014567D02*
X181421943Y-72035914D01*
X181421943Y-72035914D02*
X181480264Y-72069585D01*
X181480264Y-72069585D02*
X181550910Y-72149254D01*
X181550910Y-72149254D02*
X181600209Y-72333240D01*
X181600209Y-72333240D02*
X181578862Y-72437557D01*
X181578862Y-72437557D02*
X181545190Y-72495878D01*
X181545190Y-72495878D02*
X181465522Y-72566524D01*
X168271735Y-92103821D02*
X168271735Y-91103821D01*
X168271735Y-91103821D02*
X168033640Y-91103821D01*
X168033640Y-91103821D02*
X167890783Y-91151440D01*
X167890783Y-91151440D02*
X167795545Y-91246678D01*
X167795545Y-91246678D02*
X167747926Y-91341916D01*
X167747926Y-91341916D02*
X167700307Y-91532392D01*
X167700307Y-91532392D02*
X167700307Y-91675249D01*
X167700307Y-91675249D02*
X167747926Y-91865725D01*
X167747926Y-91865725D02*
X167795545Y-91960963D01*
X167795545Y-91960963D02*
X167890783Y-92056202D01*
X167890783Y-92056202D02*
X168033640Y-92103821D01*
X168033640Y-92103821D02*
X168271735Y-92103821D01*
X166747926Y-92103821D02*
X167319354Y-92103821D01*
X167033640Y-92103821D02*
X167033640Y-91103821D01*
X167033640Y-91103821D02*
X167128878Y-91246678D01*
X167128878Y-91246678D02*
X167224116Y-91341916D01*
X167224116Y-91341916D02*
X167319354Y-91389535D01*
X166414592Y-91103821D02*
X165795545Y-91103821D01*
X165795545Y-91103821D02*
X166128878Y-91484773D01*
X166128878Y-91484773D02*
X165986021Y-91484773D01*
X165986021Y-91484773D02*
X165890783Y-91532392D01*
X165890783Y-91532392D02*
X165843164Y-91580011D01*
X165843164Y-91580011D02*
X165795545Y-91675249D01*
X165795545Y-91675249D02*
X165795545Y-91913344D01*
X165795545Y-91913344D02*
X165843164Y-92008582D01*
X165843164Y-92008582D02*
X165890783Y-92056202D01*
X165890783Y-92056202D02*
X165986021Y-92103821D01*
X165986021Y-92103821D02*
X166271735Y-92103821D01*
X166271735Y-92103821D02*
X166366973Y-92056202D01*
X166366973Y-92056202D02*
X166414592Y-92008582D01*
X180810763Y-83737202D02*
X179944737Y-83237202D01*
X179944737Y-83237202D02*
X179825690Y-83443399D01*
X179825690Y-83443399D02*
X179795500Y-83590926D01*
X179795500Y-83590926D02*
X179830360Y-83721024D01*
X179830360Y-83721024D02*
X179889029Y-83809882D01*
X179889029Y-83809882D02*
X180030177Y-83946360D01*
X180030177Y-83946360D02*
X180153895Y-84017788D01*
X180153895Y-84017788D02*
X180342661Y-84071787D01*
X180342661Y-84071787D02*
X180448950Y-84078167D01*
X180448950Y-84078167D02*
X180579047Y-84043307D01*
X180579047Y-84043307D02*
X180691715Y-83943399D01*
X180691715Y-83943399D02*
X180810763Y-83737202D01*
X180286953Y-84644467D02*
X180191715Y-84809424D01*
X180191715Y-84809424D02*
X180102857Y-84868093D01*
X180102857Y-84868093D02*
X180037808Y-84885523D01*
X180037808Y-84885523D02*
X179866471Y-84896573D01*
X179866471Y-84896573D02*
X179677704Y-84842574D01*
X179677704Y-84842574D02*
X179347790Y-84652098D01*
X179347790Y-84652098D02*
X179289121Y-84563240D01*
X179289121Y-84563240D02*
X179271691Y-84498191D01*
X179271691Y-84498191D02*
X179278071Y-84391903D01*
X179278071Y-84391903D02*
X179373309Y-84226946D01*
X179373309Y-84226946D02*
X179462167Y-84168276D01*
X179462167Y-84168276D02*
X179527216Y-84150847D01*
X179527216Y-84150847D02*
X179633504Y-84157226D01*
X179633504Y-84157226D02*
X179839701Y-84276274D01*
X179839701Y-84276274D02*
X179898370Y-84365132D01*
X179898370Y-84365132D02*
X179915799Y-84430181D01*
X179915799Y-84430181D02*
X179909420Y-84536469D01*
X179909420Y-84536469D02*
X179814182Y-84701427D01*
X179814182Y-84701427D02*
X179725323Y-84760096D01*
X179725323Y-84760096D02*
X179660274Y-84777525D01*
X179660274Y-84777525D02*
X179553986Y-84771146D01*
X175836461Y-89426124D02*
X175336461Y-88560099D01*
X175336461Y-88560099D02*
X175130265Y-88679147D01*
X175130265Y-88679147D02*
X175030356Y-88791815D01*
X175030356Y-88791815D02*
X174995497Y-88921912D01*
X174995497Y-88921912D02*
X175001877Y-89028200D01*
X175001877Y-89028200D02*
X175055875Y-89216967D01*
X175055875Y-89216967D02*
X175127304Y-89340685D01*
X175127304Y-89340685D02*
X175263781Y-89481833D01*
X175263781Y-89481833D02*
X175352640Y-89540502D01*
X175352640Y-89540502D02*
X175482737Y-89575361D01*
X175482737Y-89575361D02*
X175630265Y-89545172D01*
X175630265Y-89545172D02*
X175836461Y-89426124D01*
X174516804Y-90188029D02*
X175011675Y-89902315D01*
X174764239Y-90045172D02*
X174264239Y-89179147D01*
X174264239Y-89179147D02*
X174418147Y-89255246D01*
X174418147Y-89255246D02*
X174548244Y-89290105D01*
X174548244Y-89290105D02*
X174654532Y-89283725D01*
X173692017Y-90664220D02*
X174186889Y-90378505D01*
X173939453Y-90521363D02*
X173439453Y-89655337D01*
X173439453Y-89655337D02*
X173593360Y-89731436D01*
X173593360Y-89731436D02*
X173723458Y-89766296D01*
X173723458Y-89766296D02*
X173829746Y-89759916D01*
%TO.C,D18*%
D11*
X154448650Y-79820465D02*
X154552178Y-80206835D01*
X156380502Y-79302827D02*
X156484030Y-79689197D01*
D12*
X154458027Y-78052684D02*
G75*
G02*
X154258027Y-78052684I-100000J0D01*
G01*
X154258027Y-78052684D02*
G75*
G02*
X154458027Y-78052684I100000J0D01*
G01*
%TO.C,D23*%
D11*
X160730655Y-65290672D02*
X160384245Y-65490672D01*
X161730655Y-67022722D02*
X161384245Y-67222722D01*
D12*
X162514745Y-64745601D02*
G75*
G02*
X162314745Y-64745601I-100000J0D01*
G01*
X162314745Y-64745601D02*
G75*
G02*
X162514745Y-64745601I100000J0D01*
G01*
%TO.C,D3*%
D11*
X172730655Y-67222722D02*
X172384245Y-67022722D01*
X173730655Y-65490672D02*
X173384245Y-65290672D01*
D12*
X175144745Y-66676601D02*
G75*
G02*
X174944745Y-66676601I-100000J0D01*
G01*
X174944745Y-66676601D02*
G75*
G02*
X175144745Y-66676601I100000J0D01*
G01*
%TO.C,D22*%
D11*
X158006484Y-67315193D02*
X157723641Y-67598036D01*
X159420697Y-68729406D02*
X159137854Y-69012249D01*
D12*
X159592115Y-66352821D02*
G75*
G02*
X159392115Y-66352821I-100000J0D01*
G01*
X159392115Y-66352821D02*
G75*
G02*
X159592115Y-66352821I100000J0D01*
G01*
%TO.C,D16*%
D11*
X157723641Y-85699968D02*
X158006484Y-85982811D01*
X159137854Y-84285755D02*
X159420697Y-84568598D01*
D12*
X156861269Y-84214337D02*
G75*
G02*
X156661269Y-84214337I-100000J0D01*
G01*
X156661269Y-84214337D02*
G75*
G02*
X156861269Y-84214337I100000J0D01*
G01*
%TO.C,D14*%
D11*
X163499617Y-89154274D02*
X163885987Y-89257802D01*
X164017255Y-87222422D02*
X164403625Y-87325950D01*
D12*
X162023362Y-88348866D02*
G75*
G02*
X161823362Y-88348866I-100000J0D01*
G01*
X161823362Y-88348866D02*
G75*
G02*
X162023362Y-88348866I100000J0D01*
G01*
%TO.C,D19*%
D11*
X154057450Y-76449002D02*
X154057450Y-76849002D01*
X156057450Y-76449002D02*
X156057450Y-76849002D01*
D12*
X154527450Y-74718002D02*
G75*
G02*
X154327450Y-74718002I-100000J0D01*
G01*
X154327450Y-74718002D02*
G75*
G02*
X154527450Y-74718002I100000J0D01*
G01*
%TO.C,D7*%
D11*
X178057450Y-76849002D02*
X178057450Y-76449002D01*
X180057450Y-76849002D02*
X180057450Y-76449002D01*
D12*
X179787450Y-78580002D02*
G75*
G02*
X179587450Y-78580002I-100000J0D01*
G01*
X179587450Y-78580002D02*
G75*
G02*
X179787450Y-78580002I100000J0D01*
G01*
%TO.C,D20*%
D11*
X154552178Y-73091169D02*
X154448650Y-73477539D01*
X156484030Y-73608807D02*
X156380502Y-73995177D01*
D12*
X155457586Y-71514914D02*
G75*
G02*
X155257586Y-71514914I-100000J0D01*
G01*
X155257586Y-71514914D02*
G75*
G02*
X155457586Y-71514914I100000J0D01*
G01*
%TO.C,D4*%
D11*
X174977046Y-69012249D02*
X174694203Y-68729406D01*
X176391259Y-67598036D02*
X176108416Y-67315193D01*
D12*
X177453631Y-69083667D02*
G75*
G02*
X177253631Y-69083667I-100000J0D01*
G01*
X177253631Y-69083667D02*
G75*
G02*
X177453631Y-69083667I100000J0D01*
G01*
%TO.C,D21*%
D11*
X155899120Y-69975797D02*
X155699120Y-70322207D01*
X157631170Y-70975797D02*
X157431170Y-71322207D01*
D12*
X157185049Y-68661707D02*
G75*
G02*
X156985049Y-68661707I-100000J0D01*
G01*
X156985049Y-68661707D02*
G75*
G02*
X157185049Y-68661707I100000J0D01*
G01*
%TO.C,D1*%
D11*
X167257450Y-63649002D02*
X166857450Y-63649002D01*
X167257450Y-65649002D02*
X166857450Y-65649002D01*
D12*
X169088450Y-64019002D02*
G75*
G02*
X168888450Y-64019002I-100000J0D01*
G01*
X168888450Y-64019002D02*
G75*
G02*
X169088450Y-64019002I100000J0D01*
G01*
%TO.C,D12*%
D11*
X169711275Y-87325950D02*
X170097645Y-87222422D01*
X170228913Y-89257802D02*
X170615283Y-89154274D01*
D12*
X168561132Y-89348425D02*
G75*
G02*
X168361132Y-89348425I-100000J0D01*
G01*
X168361132Y-89348425D02*
G75*
G02*
X168561132Y-89348425I100000J0D01*
G01*
%TO.C,D24*%
D11*
X163885987Y-64040202D02*
X163499617Y-64143730D01*
X164403625Y-65972054D02*
X164017255Y-66075582D01*
D12*
X165753768Y-63949579D02*
G75*
G02*
X165553768Y-63949579I-100000J0D01*
G01*
X165553768Y-63949579D02*
G75*
G02*
X165753768Y-63949579I100000J0D01*
G01*
%TO.C,D10*%
D11*
X174694203Y-84568598D02*
X174977046Y-84285755D01*
X176108416Y-85982811D02*
X176391259Y-85699968D01*
D12*
X174722785Y-86945183D02*
G75*
G02*
X174522785Y-86945183I-100000J0D01*
G01*
X174522785Y-86945183D02*
G75*
G02*
X174722785Y-86945183I100000J0D01*
G01*
%TO.C,D15*%
D11*
X160384245Y-87807332D02*
X160730655Y-88007332D01*
X161384245Y-86075282D02*
X161730655Y-86275282D01*
D12*
X159170155Y-86621403D02*
G75*
G02*
X158970155Y-86621403I-100000J0D01*
G01*
X158970155Y-86621403D02*
G75*
G02*
X159170155Y-86621403I100000J0D01*
G01*
%TO.C,D8*%
D11*
X177630870Y-79689197D02*
X177734398Y-79302827D01*
X179562722Y-80206835D02*
X179666250Y-79820465D01*
D12*
X178857314Y-81783090D02*
G75*
G02*
X178657314Y-81783090I-100000J0D01*
G01*
X178657314Y-81783090D02*
G75*
G02*
X178857314Y-81783090I100000J0D01*
G01*
%TO.C,D5*%
D11*
X176683730Y-71322207D02*
X176483730Y-70975797D01*
X178415780Y-70322207D02*
X178215780Y-69975797D01*
D12*
X179060851Y-72006297D02*
G75*
G02*
X178860851Y-72006297I-100000J0D01*
G01*
X178860851Y-72006297D02*
G75*
G02*
X179060851Y-72006297I100000J0D01*
G01*
%TO.C,D17*%
D11*
X155699120Y-82975797D02*
X155899120Y-83322207D01*
X157431170Y-81975797D02*
X157631170Y-82322207D01*
D12*
X155254049Y-81291707D02*
G75*
G02*
X155054049Y-81291707I-100000J0D01*
G01*
X155054049Y-81291707D02*
G75*
G02*
X155254049Y-81291707I100000J0D01*
G01*
%TO.C,D2*%
D11*
X170097645Y-66075582D02*
X169711275Y-65972054D01*
X170615283Y-64143730D02*
X170228913Y-64040202D01*
D12*
X172291538Y-64949138D02*
G75*
G02*
X172091538Y-64949138I-100000J0D01*
G01*
X172091538Y-64949138D02*
G75*
G02*
X172291538Y-64949138I100000J0D01*
G01*
%TO.C,D6*%
D11*
X177734398Y-73995177D02*
X177630870Y-73608807D01*
X179666250Y-73477539D02*
X179562722Y-73091169D01*
D12*
X179856873Y-75245320D02*
G75*
G02*
X179656873Y-75245320I-100000J0D01*
G01*
X179656873Y-75245320D02*
G75*
G02*
X179856873Y-75245320I100000J0D01*
G01*
%TO.C,D13*%
D11*
X166857450Y-87649002D02*
X167257450Y-87649002D01*
X166857450Y-89649002D02*
X167257450Y-89649002D01*
D12*
X165226450Y-89279002D02*
G75*
G02*
X165026450Y-89279002I-100000J0D01*
G01*
X165026450Y-89279002D02*
G75*
G02*
X165226450Y-89279002I100000J0D01*
G01*
%TO.C,D9*%
D11*
X176483730Y-82322207D02*
X176683730Y-81975797D01*
X178215780Y-83322207D02*
X178415780Y-82975797D01*
D12*
X177129851Y-84636297D02*
G75*
G02*
X176929851Y-84636297I-100000J0D01*
G01*
X176929851Y-84636297D02*
G75*
G02*
X177129851Y-84636297I100000J0D01*
G01*
%TO.C,D11*%
D11*
X172384245Y-86275282D02*
X172730655Y-86075282D01*
X173384245Y-88007332D02*
X173730655Y-87807332D01*
D12*
X171800155Y-88552403D02*
G75*
G02*
X171600155Y-88552403I-100000J0D01*
G01*
X171600155Y-88552403D02*
G75*
G02*
X171800155Y-88552403I100000J0D01*
G01*
%TD*%
M02*
